Coordinates
version=1
nRows=16
nColumns=22
inDegrees=yes

Units are S.I. units (second, meters, Newtons, ...)
If the header above contains a line with 'inDegrees', this indicates whether rotational values are in degrees (yes) or radians (no).

endheader
time	pelvis_tilt	pelvis_list	pelvis_rotation	pelvis_tx	pelvis_ty	pelvis_tz	hip_flexion_r	hip_adduction_r	hip_rotation_r	knee_angle_r	ankle_angle_r	subtalar_angle_r	hip_flexion_l	hip_adduction_l	hip_rotation_l	knee_angle_l	ankle_angle_l	subtalar_angle_l	lumbar_extension	lumbar_bending	lumbar_rotation
      0.01000000	      5.08158161	     -3.35297910	      4.85808214	      1.14903985	      0.94185307	     -0.06423892	     -7.59611785	      5.57110102	    -10.62976775	     -8.81058983	     11.48854931	     -2.22231230	     -4.76146582	     -3.97613020	    -12.04748943	    -16.47384961	     23.03498523	     -8.32934953	    -12.49443283	      3.81364850	     -7.98634933
      0.02000000	      5.08992083	     -3.35530663	      4.88253036	      1.14886728	      0.94187078	     -0.06414567	     -7.59453329	      5.58217315	    -10.65239000	     -8.80804089	     11.48037857	     -2.22548823	     -4.73509027	     -3.99160310	    -12.01761884	    -16.51276936	     23.00811441	     -8.32743812	    -12.50670238	      3.79598760	     -7.98671866
      0.03000000	      5.09702942	     -3.35755437	      4.89015282	      1.14871380	      0.94188941	     -0.06399997	     -7.58976989	      5.59229803	    -10.65504697	     -8.81026434	     11.47809772	     -2.22445328	     -4.73084298	     -4.00479942	    -12.01482036	    -16.51067355	     23.00693194	     -8.32701894	    -12.51058822	      3.77105487	     -7.98784469
      0.04000000	      5.12850703	     -3.35216102	      4.93195258	      1.14851618	      0.94194108	     -0.06388737	     -7.60279813	      5.59798717	    -10.71019466	     -8.82774622	     11.44690405	     -2.19056887	     -4.72820077	     -4.01892807	    -11.97369977	    -16.54398638	     22.98990780	     -8.31096391	    -12.54602705	      3.74004678	     -8.01334215
      0.05000000	      5.14047143	     -3.35421350	      4.94362173	      1.14834953	      0.94196977	     -0.06370487	     -7.60037912	      5.61134678	    -10.70606346	     -8.83448820	     11.44667131	     -2.18874032	     -4.72693566	     -4.03650234	    -11.96944410	    -16.54286367	     22.98961433	     -8.31060959	    -12.54950928	      3.70646972	     -8.01204443
      0.06000000	      5.17993552	     -3.34854965	      4.96400710	      1.14809322	      0.94203660	     -0.06353856	     -7.61254936	      5.61775873	    -10.68236013	     -8.86441631	     11.44563323	     -2.17786977	     -4.73003200	     -4.05004270	    -11.93795365	    -16.58128748	     22.98698706	     -8.30421426	    -12.60193671	      3.66862885	     -8.00994766
      0.07000000	      5.22970424	     -3.34667347	      4.97314081	      1.14784942	      0.94212567	     -0.06335129	     -7.64450186	      5.62964307	    -10.66958018	     -8.87561373	     11.44827817	     -2.16065381	     -4.75642194	     -4.06673625	    -11.92225038	    -16.60072260	     22.98284948	     -8.29360838	    -12.66403537	      3.63383992	     -8.01853725
      0.08000000	      5.24211377	     -3.35063414	      4.97384953	      1.14763049	      0.94216826	     -0.06316310	     -7.64151623	      5.64352217	    -10.66914943	     -8.87579458	     11.44806354	     -2.15914902	     -4.75543974	     -4.08366859	    -11.92102236	    -16.59551299	     22.98232504	     -8.29290026	    -12.67162812	      3.60178512	     -8.02036007
      0.09000000	      5.34670180	     -3.34204942	      4.96293589	      1.14737973	      0.94235313	     -0.06297413	     -7.74558139	      5.65017898	    -10.65421818	     -8.86289277	     11.43002159	     -2.11830178	     -4.85692441	     -4.09541360	    -11.95987653	    -16.59237261	     22.96375525	     -8.25242859	    -12.80302822	      3.56416405	     -8.00789673
      0.10000000	      5.36099227	     -3.34305569	      4.95303070	      1.14708749	      0.94240791	     -0.06278631	     -7.73678783	      5.65873568	    -10.64468380	     -8.87155905	     11.42090116	     -2.11462361	     -4.84911430	     -4.10545491	    -11.95017690	    -16.59875929	     22.96050157	     -8.24759108	    -12.82845089	      3.52923723	     -8.00877107
      0.11000000	      5.36766034	     -3.34820074	      4.93162945	      1.14679483	      0.94245370	     -0.06260301	     -7.72587385	      5.66832599	    -10.64958646	     -8.86414480	     11.41846805	     -2.11352633	     -4.83932390	     -4.11556203	    -11.94812301	    -16.59595053	     22.95930889	     -8.24675593	    -12.84645401	      3.50500738	     -8.01470596
      0.12000000	      5.38778398	     -3.34112572	      4.91085379	      1.14645108	      0.94251918	     -0.06239969	     -7.71276431	      5.66492630	    -10.65707794	     -8.88999038	     11.38108996	     -2.10455264	     -4.82093075	     -4.12120242	    -11.96808385	    -16.63509228	     22.94401838	     -8.24152668	    -12.89121832	      3.45912981	     -8.01947276
      0.13000000	      5.39195407	     -3.34742099	      4.88460523	      1.14615124	      0.94255923	     -0.06221196	     -7.69986521	      5.67535582	    -10.66681244	     -8.87964055	     11.37747787	     -2.10274634	     -4.80932882	     -4.13086706	    -11.96907963	    -16.63039781	     22.94209107	     -8.24093068	    -12.90840579	      3.43697767	     -8.02790797
      0.14000000	      5.38753232	     -3.34873343	      4.86193268	      1.14584585	      0.94258490	     -0.06201233	     -7.65846353	      5.67585994	    -10.73128664	     -8.90745053	     11.29744982	     -2.06242669	     -4.76245587	     -4.14783221	    -12.03100061	    -16.67750897	     22.90651860	     -8.22744710	    -12.91452503	      3.40487886	     -8.04860804
      0.15000000	      5.39290703	     -3.35420057	      4.84470123	      1.14557282	      0.94261763	     -0.06180653	     -7.64629781	      5.69007934	    -10.73564438	     -8.90264115	     11.29580875	     -2.06035462	     -4.75179542	     -4.16075414	    -12.02894343	    -16.67317872	     22.90601504	     -8.22697013	    -12.92795699	      3.37758319	     -8.06025638
      0.16000000	      5.37826858	     -3.35682035	      4.86174109	      1.14527310	      0.94261209	     -0.06163366	     -7.59700029	      5.70187599	    -10.78421094	     -8.92614287	     11.24578996	     -2.01171553	     -4.67952335	     -4.18438500	    -12.03968849	    -16.73454881	     22.88760149	     -8.21904520	    -12.91789823	      3.35105233	     -8.13681791
